<svg width="26" height="26" viewBox="0 0 26 26" fill="none" xmlns="http://www.w3.org/2000/svg">
<path opacity="0.4" d="M20.1147 2.33325H18.088C15.7627 2.33325 14.536 3.55992 14.536 5.88525V7.91192C14.536 10.2373 15.7627 11.4639 18.088 11.4639H20.1147C22.44 11.4639 23.6667 10.2373 23.6667 7.91192V5.88525C23.6667 3.55992 22.44 2.33325 20.1147 2.33325Z" fill="white"/>
<path opacity="0.4" d="M7.92259 14.5253H5.89592C3.55992 14.5253 2.33325 15.7519 2.33325 18.0773V20.1039C2.33325 22.4399 3.55992 23.6666 5.88525 23.6666H7.91192C10.2373 23.6666 11.4639 22.4399 11.4639 20.1146V18.0879C11.4746 15.7519 10.2479 14.5253 7.92259 14.5253Z" fill="white"/>
<path d="M6.90925 11.4853C9.43651 11.4853 11.4853 9.43651 11.4853 6.90925C11.4853 4.382 9.43651 2.33325 6.90925 2.33325C4.382 2.33325 2.33325 4.382 2.33325 6.90925C2.33325 9.43651 4.382 11.4853 6.90925 11.4853Z" fill="white"/>
<path d="M19.0906 23.6666C21.6179 23.6666 23.6666 21.6179 23.6666 19.0906C23.6666 16.5634 21.6179 14.5146 19.0906 14.5146C16.5634 14.5146 14.5146 16.5634 14.5146 19.0906C14.5146 21.6179 16.5634 23.6666 19.0906 23.6666Z" fill="white"/>
</svg>
