<svg width="24" height="24" viewBox="0 0 24 24" fill="none" xmlns="http://www.w3.org/2000/svg">
<path opacity="0.4" d="M7.75 6.75C7.75 4.40614 9.65614 2.5 12 2.5C14.3435 2.5 16.2495 4.40562 16.25 6.74903C16.2405 9.04858 14.4468 10.9052 12.161 10.99H12.161H12.1609H12.1609H12.1609H12.1609H12.1608H12.1608H12.1608H12.1607H12.1607H12.1607H12.1606H12.1606H12.1606H12.1606H12.1605H12.1605H12.1605H12.1604H12.1604H12.1604H12.1604H12.1603H12.1603H12.1603H12.1602H12.1602H12.1602H12.1601H12.1601H12.1601H12.1601H12.16H12.16H12.16H12.1599H12.1599H12.1599H12.1599H12.1598H12.1598H12.1598H12.1597H12.1597H12.1597H12.1596H12.1596H12.1596H12.1596H12.1595H12.1595H12.1595H12.1594H12.1594H12.1594H12.1594H12.1593H12.1593H12.1593H12.1592H12.1592H12.1592H12.1591H12.1591H12.1591H12.1591H12.159H12.159H12.159H12.1589H12.1589H12.1589H12.1588H12.1588H12.1588H12.1588H12.1587H12.1587H12.1587H12.1586H12.1586H12.1586H12.1585H12.1585H12.1585H12.1585H12.1584H12.1584H12.1584H12.1583H12.1583H12.1583H12.1582H12.1582H12.1582H12.1581H12.1581H12.1581H12.1581H12.158H12.158H12.158H12.1579H12.1579H12.1579H12.1578H12.1578H12.1578H12.1577H12.1577H12.1577H12.1576H12.1576H12.1576H12.1575H12.1575H12.1575H12.1575H12.1574H12.1574H12.1574H12.1573H12.1573H12.1573H12.1572H12.1572H12.1572H12.1571H12.1571H12.1571H12.157H12.157H12.157H12.1569H12.1569H12.1569H12.1568H12.1568H12.1568H12.1567H12.1567H12.1566H12.1566H12.1566H12.1565H12.1565H12.1565H12.1564H12.1564H12.1564H12.1563H12.1563H12.1563H12.1562H12.1562H12.1562H12.1561H12.1561H12.156H12.156H12.156H12.1559H12.1559H12.1559H12.1558H12.1558H12.1558H12.1557H12.1557H12.1556H12.1556H12.1556H12.1555H12.1555H12.1555H12.1554H12.1554H12.1553H12.1553H12.1553H12.1552H12.1552H12.1551H12.1551H12.1551H12.155H12.155H12.1549H12.1549H12.1549H12.1548H12.1548H12.1547H12.1547H12.1547H12.1546H12.1546H12.1545H12.1545H12.1545H12.1544H12.1544H12.1543H12.1543H12.1542H12.1542H12.1542H12.1541H12.1541H12.154H12.154H12.1539H12.1539H12.1539H12.1538H12.1538H12.1537H12.1537H12.1536H12.1536H12.1535H12.1535H12.1535H12.1534H12.1534H12.1533H12.1533H12.1532H12.1532H12.1531H12.1531H12.153H12.153H12.1529H12.1529H12.1529H12.1528H12.1528H12.1527H12.1527H12.1526H12.1526H12.1525H12.1525H12.1524H12.1524H12.1523H12.1523H12.1522H12.1522H12.1521H12.1521H12.152H12.152H12.1519H12.1519H12.1518H12.1518H12.1517H12.1517H12.1516H12.1516H12.1515H12.1514H12.1514H12.1513H12.1513H12.1512H12.1512H12.1511H12.1511H12.151H12.151H12.1509H12.1509H12.1508H12.1507H12.1507H12.1506H12.1506H12.1505H12.1505H12.1504H12.1503H12.1503H12.1502H12.1502H12.1501H12.1501H12.15H12.1499H12.1498H12.1496H12.1495H12.1494H12.1493H12.1492H12.1491H12.149H12.1488H12.1487H12.1486H12.1485H12.1484H12.1483H12.1482H12.148H12.1479H12.1478H12.1477H12.1476H12.1475H12.1474H12.1473H12.1471H12.147H12.1469H12.1468H12.1467H12.1466H12.1465H12.1464H12.1463H12.1461H12.146H12.1459H12.1458H12.1457H12.1456H12.1455H12.1454H12.1453H12.1452H12.1451H12.1449H12.1448H12.1447H12.1446H12.1445H12.1444H12.1443H12.1442H12.1441H12.144H12.1439H12.1438H12.1437H12.1436H12.1435H12.1433H12.1432H12.1431H12.143H12.1429H12.1428H12.1427H12.1426H12.1425H12.1424H12.1423H12.1422H12.1421H12.142H12.1419H12.1418H12.1417H12.1416H12.1415H12.1414H12.1413H12.1412H12.1411H12.141H12.1409H12.1408H12.1407H12.1406H12.1405H12.1404H12.1403H12.1402H12.1401H12.14H12.1399H12.1398H12.1397H12.1396H12.1395H12.1394H12.1393H12.1392H12.1391H12.139H12.1389H12.1388H12.1387H12.1386H12.1385H12.1384H12.1383H12.1382H12.1381H12.138H12.1379H12.1378H12.1377H12.1376H12.1375H12.1374H12.1373H12.1372H12.1371H12.137H12.1369H12.1368H12.1368H12.1367H12.1366H12.1365H12.1364H12.1363H12.1362H12.1361H12.136H12.1359H12.1358H12.1357H12.1356H12.1355H12.1354H12.1353H12.1352H12.1351H12.1351H12.135H12.1349H12.1348H12.1347H12.1346H12.1345H12.1344H12.1343H12.1342H12.1341H12.134H12.1339H12.1338H12.1338C12.0433 10.9796 11.9492 10.9808 11.8625 10.989C9.52538 10.8911 7.75 9.03575 7.75 6.75Z" fill="#2176FF" stroke="#2176FF"/>
<path d="M7.19871 20.1748L7.19734 20.1739C6.03839 19.4012 5.45999 18.4016 5.45999 17.3799C5.45999 16.3578 6.03875 15.3484 7.20703 14.5661C8.51359 13.7017 10.2518 13.2549 12.0125 13.2549C13.7738 13.2549 15.5067 13.702 16.8026 14.5659C17.958 15.3362 18.5309 16.3355 18.54 17.3619C18.5392 18.3934 17.9603 19.3927 16.8009 20.1751C15.5 21.0483 13.7627 21.4999 12 21.4999C10.237 21.4999 8.4996 21.0482 7.19871 20.1748Z" fill="#2176FF" stroke="#2176FF"/>
</svg>
